<mxfile host="app.diagrams.net" modified="2023-04-26T23:00:40.470Z" agent="Mozilla/5.0 (Windows NT 10.0; Win64; x64) AppleWebKit/537.36 (KHTML, like Gecko) Chrome/112.0.0.0 Safari/537.36" etag="LpmjxS4RhEWY4cGuxVgu" version="21.1.7" type="onedrive">
  <diagram name="PÃ¡gina-1" id="Lx9C0iMcdYgfopz6hupm">
    <mxGraphModel grid="0" page="1" gridSize="10" guides="1" tooltips="1" connect="1" arrows="1" fold="1" pageScale="1" pageWidth="827" pageHeight="1169" math="0" shadow="0">
      <root>
        <mxCell id="0" />
        <mxCell id="1" parent="0" />
        <mxCell id="v2lNbbgw6htRW_UuAFdc-28" style="rounded=0;orthogonalLoop=1;jettySize=auto;html=1;entryX=0.492;entryY=0.962;entryDx=0;entryDy=0;entryPerimeter=0;endArrow=oval;endFill=1;" edge="1" parent="1" source="v2lNbbgw6htRW_UuAFdc-1" target="v2lNbbgw6htRW_UuAFdc-26">
          <mxGeometry relative="1" as="geometry" />
        </mxCell>
        <mxCell id="v2lNbbgw6htRW_UuAFdc-29" style="rounded=0;orthogonalLoop=1;jettySize=auto;html=1;exitX=1;exitY=0;exitDx=0;exitDy=0;entryX=-0.067;entryY=0.654;entryDx=0;entryDy=0;entryPerimeter=0;endArrow=oval;endFill=1;" edge="1" parent="1" source="v2lNbbgw6htRW_UuAFdc-1" target="v2lNbbgw6htRW_UuAFdc-27">
          <mxGeometry relative="1" as="geometry" />
        </mxCell>
        <mxCell id="v2lNbbgw6htRW_UuAFdc-33" style="edgeStyle=orthogonalEdgeStyle;rounded=0;orthogonalLoop=1;jettySize=auto;html=1;exitX=0;exitY=0.75;exitDx=0;exitDy=0;entryX=0.5;entryY=1;entryDx=0;entryDy=0;endArrow=none;endFill=0;" edge="1" parent="1" source="v2lNbbgw6htRW_UuAFdc-1" target="v2lNbbgw6htRW_UuAFdc-25">
          <mxGeometry relative="1" as="geometry" />
        </mxCell>
        <mxCell id="v2lNbbgw6htRW_UuAFdc-54" value="1" style="edgeLabel;html=1;align=center;verticalAlign=middle;resizable=0;points=[];" vertex="1" connectable="0" parent="v2lNbbgw6htRW_UuAFdc-33">
          <mxGeometry x="-0.5" relative="1" as="geometry">
            <mxPoint as="offset" />
          </mxGeometry>
        </mxCell>
        <mxCell id="v2lNbbgw6htRW_UuAFdc-43" value="1" style="edgeStyle=orthogonalEdgeStyle;rounded=0;orthogonalLoop=1;jettySize=auto;html=1;exitX=0.25;exitY=1;exitDx=0;exitDy=0;entryX=1;entryY=0.5;entryDx=0;entryDy=0;endArrow=none;endFill=0;" edge="1" parent="1" source="v2lNbbgw6htRW_UuAFdc-1" target="v2lNbbgw6htRW_UuAFdc-40">
          <mxGeometry x="-0.62" relative="1" as="geometry">
            <mxPoint as="offset" />
          </mxGeometry>
        </mxCell>
        <mxCell id="v2lNbbgw6htRW_UuAFdc-52" style="edgeStyle=orthogonalEdgeStyle;rounded=0;orthogonalLoop=1;jettySize=auto;html=1;exitX=1;exitY=0.5;exitDx=0;exitDy=0;entryX=-0.031;entryY=0.346;entryDx=0;entryDy=0;entryPerimeter=0;endArrow=oval;endFill=1;" edge="1" parent="1" source="v2lNbbgw6htRW_UuAFdc-1" target="v2lNbbgw6htRW_UuAFdc-50">
          <mxGeometry relative="1" as="geometry" />
        </mxCell>
        <mxCell id="v2lNbbgw6htRW_UuAFdc-76" style="rounded=0;orthogonalLoop=1;jettySize=auto;html=1;exitX=1;exitY=0.25;exitDx=0;exitDy=0;entryX=-0.033;entryY=0.654;entryDx=0;entryDy=0;entryPerimeter=0;endArrow=oval;endFill=1;" edge="1" parent="1" source="v2lNbbgw6htRW_UuAFdc-1" target="v2lNbbgw6htRW_UuAFdc-75">
          <mxGeometry relative="1" as="geometry" />
        </mxCell>
        <mxCell id="v2lNbbgw6htRW_UuAFdc-77" style="rounded=0;orthogonalLoop=1;jettySize=auto;html=1;exitX=0.75;exitY=0;exitDx=0;exitDy=0;entryX=-0.033;entryY=0.577;entryDx=0;entryDy=0;entryPerimeter=0;endArrow=oval;endFill=1;" edge="1" parent="1" source="v2lNbbgw6htRW_UuAFdc-1" target="v2lNbbgw6htRW_UuAFdc-78">
          <mxGeometry relative="1" as="geometry">
            <mxPoint x="591" y="370" as="targetPoint" />
          </mxGeometry>
        </mxCell>
        <mxCell id="v2lNbbgw6htRW_UuAFdc-1" value="DEPARTAMENTO" style="whiteSpace=wrap;html=1;align=center;" vertex="1" parent="1">
          <mxGeometry x="470" y="443" width="100" height="40" as="geometry" />
        </mxCell>
        <mxCell id="v2lNbbgw6htRW_UuAFdc-12" style="rounded=0;orthogonalLoop=1;jettySize=auto;html=1;exitX=0.25;exitY=0;exitDx=0;exitDy=0;endArrow=oval;endFill=1;" edge="1" parent="1" source="v2lNbbgw6htRW_UuAFdc-59" target="v2lNbbgw6htRW_UuAFdc-14">
          <mxGeometry relative="1" as="geometry">
            <mxPoint x="234" y="246" as="targetPoint" />
          </mxGeometry>
        </mxCell>
        <mxCell id="v2lNbbgw6htRW_UuAFdc-13" style="rounded=0;orthogonalLoop=1;jettySize=auto;html=1;exitX=0.75;exitY=0;exitDx=0;exitDy=0;endArrow=oval;endFill=1;entryX=0.442;entryY=1;entryDx=0;entryDy=0;entryPerimeter=0;" edge="1" parent="1" source="v2lNbbgw6htRW_UuAFdc-59" target="v2lNbbgw6htRW_UuAFdc-15">
          <mxGeometry relative="1" as="geometry">
            <mxPoint x="304" y="229" as="targetPoint" />
          </mxGeometry>
        </mxCell>
        <mxCell id="v2lNbbgw6htRW_UuAFdc-16" style="rounded=0;orthogonalLoop=1;jettySize=auto;html=1;exitX=0.5;exitY=0;exitDx=0;exitDy=0;endArrow=oval;endFill=1;" edge="1" parent="1" source="v2lNbbgw6htRW_UuAFdc-59" target="v2lNbbgw6htRW_UuAFdc-17">
          <mxGeometry relative="1" as="geometry">
            <mxPoint x="255" y="198" as="targetPoint" />
          </mxGeometry>
        </mxCell>
        <mxCell id="v2lNbbgw6htRW_UuAFdc-18" style="rounded=0;orthogonalLoop=1;jettySize=auto;html=1;exitX=1;exitY=0.5;exitDx=0;exitDy=0;endArrow=oval;endFill=1;entryX=0.531;entryY=1;entryDx=0;entryDy=0;entryPerimeter=0;" edge="1" parent="1" source="v2lNbbgw6htRW_UuAFdc-3" target="v2lNbbgw6htRW_UuAFdc-19">
          <mxGeometry relative="1" as="geometry">
            <mxPoint x="302" y="113" as="targetPoint" />
          </mxGeometry>
        </mxCell>
        <mxCell id="v2lNbbgw6htRW_UuAFdc-20" style="rounded=0;orthogonalLoop=1;jettySize=auto;html=1;exitX=1;exitY=0.25;exitDx=0;exitDy=0;endArrow=none;endFill=0;entryX=0;entryY=0.5;entryDx=0;entryDy=0;" edge="1" parent="1" source="v2lNbbgw6htRW_UuAFdc-59" target="3enhpQpEc42d_-qlgLJK-4">
          <mxGeometry relative="1" as="geometry">
            <mxPoint x="332.97399999999993" y="140.012" as="targetPoint" />
          </mxGeometry>
        </mxCell>
        <mxCell id="v2lNbbgw6htRW_UuAFdc-22" style="rounded=0;orthogonalLoop=1;jettySize=auto;html=1;exitX=1;exitY=0.5;exitDx=0;exitDy=0;endArrow=oval;endFill=1;entryX=0.009;entryY=0.5;entryDx=0;entryDy=0;entryPerimeter=0;" edge="1" parent="1" source="v2lNbbgw6htRW_UuAFdc-3" target="v2lNbbgw6htRW_UuAFdc-23">
          <mxGeometry relative="1" as="geometry">
            <mxPoint x="391" y="259" as="targetPoint" />
          </mxGeometry>
        </mxCell>
        <mxCell id="v2lNbbgw6htRW_UuAFdc-64" style="edgeStyle=orthogonalEdgeStyle;rounded=0;orthogonalLoop=1;jettySize=auto;html=1;entryX=0.5;entryY=1;entryDx=0;entryDy=0;" edge="1" parent="1" source="v2lNbbgw6htRW_UuAFdc-3" target="v2lNbbgw6htRW_UuAFdc-59">
          <mxGeometry relative="1" as="geometry" />
        </mxCell>
        <mxCell id="v2lNbbgw6htRW_UuAFdc-3" value="EMPLEADOS" style="whiteSpace=wrap;html=1;align=center;" vertex="1" parent="1">
          <mxGeometry x="252" y="213" width="100" height="40" as="geometry" />
        </mxCell>
        <mxCell id="v2lNbbgw6htRW_UuAFdc-9" style="edgeStyle=orthogonalEdgeStyle;rounded=0;orthogonalLoop=1;jettySize=auto;html=1;entryX=0.5;entryY=1;entryDx=0;entryDy=0;" edge="1" parent="1" source="v2lNbbgw6htRW_UuAFdc-4" target="v2lNbbgw6htRW_UuAFdc-3">
          <mxGeometry relative="1" as="geometry">
            <Array as="points">
              <mxPoint x="170" y="285" />
              <mxPoint x="302" y="285" />
            </Array>
          </mxGeometry>
        </mxCell>
        <mxCell id="v2lNbbgw6htRW_UuAFdc-55" style="rounded=0;orthogonalLoop=1;jettySize=auto;html=1;exitX=0;exitY=0.25;exitDx=0;exitDy=0;entryX=1;entryY=0.462;entryDx=0;entryDy=0;entryPerimeter=0;endArrow=oval;endFill=1;" edge="1" parent="1" source="v2lNbbgw6htRW_UuAFdc-4" target="v2lNbbgw6htRW_UuAFdc-53">
          <mxGeometry relative="1" as="geometry" />
        </mxCell>
        <mxCell id="v2lNbbgw6htRW_UuAFdc-57" style="rounded=0;orthogonalLoop=1;jettySize=auto;html=1;exitX=0;exitY=0.5;exitDx=0;exitDy=0;entryX=1.017;entryY=0.538;entryDx=0;entryDy=0;entryPerimeter=0;endArrow=oval;endFill=1;" edge="1" parent="1" source="v2lNbbgw6htRW_UuAFdc-4" target="v2lNbbgw6htRW_UuAFdc-56">
          <mxGeometry relative="1" as="geometry" />
        </mxCell>
        <mxCell id="v2lNbbgw6htRW_UuAFdc-79" value="1" style="edgeStyle=orthogonalEdgeStyle;rounded=0;orthogonalLoop=1;jettySize=auto;html=1;exitX=0.25;exitY=1;exitDx=0;exitDy=0;entryX=0.5;entryY=0;entryDx=0;entryDy=0;endArrow=none;endFill=0;" edge="1" parent="1" source="v2lNbbgw6htRW_UuAFdc-4" target="v2lNbbgw6htRW_UuAFdc-90">
          <mxGeometry x="-0.8062" relative="1" as="geometry">
            <mxPoint x="87" y="368" as="targetPoint" />
            <mxPoint as="offset" />
          </mxGeometry>
        </mxCell>
        <mxCell id="v2lNbbgw6htRW_UuAFdc-4" value="EMPLEADO" style="whiteSpace=wrap;html=1;align=center;" vertex="1" parent="1">
          <mxGeometry x="120" y="312" width="100" height="40" as="geometry" />
        </mxCell>
        <mxCell id="v2lNbbgw6htRW_UuAFdc-8" style="edgeStyle=orthogonalEdgeStyle;rounded=0;orthogonalLoop=1;jettySize=auto;html=1;entryX=0.5;entryY=1;entryDx=0;entryDy=0;endArrow=block;endFill=0;" edge="1" parent="1" source="v2lNbbgw6htRW_UuAFdc-5" target="v2lNbbgw6htRW_UuAFdc-3">
          <mxGeometry relative="1" as="geometry" />
        </mxCell>
        <mxCell id="v2lNbbgw6htRW_UuAFdc-5" value="SUPERVISOR" style="whiteSpace=wrap;html=1;align=center;" vertex="1" parent="1">
          <mxGeometry x="252" y="312" width="100" height="40" as="geometry" />
        </mxCell>
        <mxCell id="v2lNbbgw6htRW_UuAFdc-7" style="edgeStyle=orthogonalEdgeStyle;rounded=0;orthogonalLoop=1;jettySize=auto;html=1;entryX=0.5;entryY=1;entryDx=0;entryDy=0;endArrow=block;endFill=0;" edge="1" parent="1" source="v2lNbbgw6htRW_UuAFdc-6" target="v2lNbbgw6htRW_UuAFdc-3">
          <mxGeometry relative="1" as="geometry">
            <Array as="points">
              <mxPoint x="434" y="285" />
              <mxPoint x="302" y="285" />
            </Array>
          </mxGeometry>
        </mxCell>
        <mxCell id="v2lNbbgw6htRW_UuAFdc-31" value="(0:1)" style="rounded=0;orthogonalLoop=1;jettySize=auto;html=1;exitX=0.5;exitY=1;exitDx=0;exitDy=0;entryX=0.5;entryY=0;entryDx=0;entryDy=0;endArrow=none;endFill=0;" edge="1" parent="1" source="v2lNbbgw6htRW_UuAFdc-6" target="v2lNbbgw6htRW_UuAFdc-30">
          <mxGeometry relative="1" as="geometry" />
        </mxCell>
        <mxCell id="v2lNbbgw6htRW_UuAFdc-68" style="rounded=0;orthogonalLoop=1;jettySize=auto;html=1;exitX=1;exitY=0.5;exitDx=0;exitDy=0;endArrow=oval;endFill=1;entryX=0;entryY=0.615;entryDx=0;entryDy=0;entryPerimeter=0;" edge="1" parent="1" source="v2lNbbgw6htRW_UuAFdc-6" target="v2lNbbgw6htRW_UuAFdc-69">
          <mxGeometry relative="1" as="geometry">
            <mxPoint x="518" y="332" as="targetPoint" />
          </mxGeometry>
        </mxCell>
        <mxCell id="v2lNbbgw6htRW_UuAFdc-102" style="rounded=0;orthogonalLoop=1;jettySize=auto;html=1;exitX=1;exitY=0.25;exitDx=0;exitDy=0;entryX=-0.044;entryY=0.571;entryDx=0;entryDy=0;entryPerimeter=0;endArrow=oval;endFill=1;" edge="1" parent="1" source="v2lNbbgw6htRW_UuAFdc-6" target="v2lNbbgw6htRW_UuAFdc-101">
          <mxGeometry relative="1" as="geometry" />
        </mxCell>
        <mxCell id="v2lNbbgw6htRW_UuAFdc-6" value="CORDINADOR" style="whiteSpace=wrap;html=1;align=center;" vertex="1" parent="1">
          <mxGeometry x="384" y="312" width="100" height="40" as="geometry" />
        </mxCell>
        <mxCell id="v2lNbbgw6htRW_UuAFdc-72" style="rounded=0;orthogonalLoop=1;jettySize=auto;html=1;exitX=0.25;exitY=1;exitDx=0;exitDy=0;entryX=0.443;entryY=0.077;entryDx=0;entryDy=0;entryPerimeter=0;endArrow=oval;endFill=1;" edge="1" parent="1" source="3enhpQpEc42d_-qlgLJK-8" target="v2lNbbgw6htRW_UuAFdc-71">
          <mxGeometry relative="1" as="geometry" />
        </mxCell>
        <mxCell id="v2lNbbgw6htRW_UuAFdc-73" style="rounded=0;orthogonalLoop=1;jettySize=auto;html=1;exitX=0.75;exitY=1;exitDx=0;exitDy=0;entryX=0.576;entryY=0;entryDx=0;entryDy=0;entryPerimeter=0;endArrow=oval;endFill=1;" edge="1" parent="1" source="3enhpQpEc42d_-qlgLJK-8" target="v2lNbbgw6htRW_UuAFdc-70">
          <mxGeometry relative="1" as="geometry" />
        </mxCell>
        <mxCell id="v2lNbbgw6htRW_UuAFdc-47" style="rounded=0;orthogonalLoop=1;jettySize=auto;html=1;exitX=0.5;exitY=1;exitDx=0;exitDy=0;entryX=0.436;entryY=-0.077;entryDx=0;entryDy=0;entryPerimeter=0;endArrow=oval;endFill=1;" edge="1" parent="1" source="v2lNbbgw6htRW_UuAFdc-11" target="v2lNbbgw6htRW_UuAFdc-46">
          <mxGeometry relative="1" as="geometry" />
        </mxCell>
        <mxCell id="v2lNbbgw6htRW_UuAFdc-48" style="rounded=0;orthogonalLoop=1;jettySize=auto;html=1;exitX=0.75;exitY=1;exitDx=0;exitDy=0;endArrow=oval;endFill=1;" edge="1" parent="1" source="v2lNbbgw6htRW_UuAFdc-11" target="v2lNbbgw6htRW_UuAFdc-45">
          <mxGeometry relative="1" as="geometry" />
        </mxCell>
        <mxCell id="v2lNbbgw6htRW_UuAFdc-87" value="1" style="edgeStyle=orthogonalEdgeStyle;rounded=0;orthogonalLoop=1;jettySize=auto;html=1;exitX=0;exitY=0.5;exitDx=0;exitDy=0;entryX=1;entryY=0.5;entryDx=0;entryDy=0;endArrow=none;endFill=0;" edge="1" parent="1" source="v2lNbbgw6htRW_UuAFdc-11" target="v2lNbbgw6htRW_UuAFdc-86">
          <mxGeometry x="-0.5135" relative="1" as="geometry">
            <mxPoint as="offset" />
          </mxGeometry>
        </mxCell>
        <mxCell id="v2lNbbgw6htRW_UuAFdc-11" value="PROYECTO" style="whiteSpace=wrap;html=1;align=center;" vertex="1" parent="1">
          <mxGeometry x="252" y="575" width="100" height="40" as="geometry" />
        </mxCell>
        <mxCell id="v2lNbbgw6htRW_UuAFdc-14" value="fecha nacimiento" style="text;html=1;align=center;verticalAlign=middle;resizable=0;points=[];autosize=1;strokeColor=none;fillColor=none;" vertex="1" parent="1">
          <mxGeometry x="97.75" y="86" width="109" height="26" as="geometry" />
        </mxCell>
        <mxCell id="v2lNbbgw6htRW_UuAFdc-15" value="sexo" style="text;html=1;align=center;verticalAlign=middle;resizable=0;points=[];autosize=1;strokeColor=none;fillColor=none;" vertex="1" parent="1">
          <mxGeometry x="261" y="86" width="43" height="26" as="geometry" />
        </mxCell>
        <mxCell id="v2lNbbgw6htRW_UuAFdc-17" value="nombre" style="text;html=1;align=center;verticalAlign=middle;resizable=0;points=[];autosize=1;strokeColor=none;fillColor=none;" vertex="1" parent="1">
          <mxGeometry x="196" y="60" width="59" height="26" as="geometry" />
        </mxCell>
        <mxCell id="v2lNbbgw6htRW_UuAFdc-19" value="num seg social" style="text;html=1;align=center;verticalAlign=middle;resizable=0;points=[];autosize=1;strokeColor=none;fillColor=none;fontStyle=4" vertex="1" parent="1">
          <mxGeometry x="370" y="193" width="98" height="26" as="geometry" />
        </mxCell>
        <mxCell id="v2lNbbgw6htRW_UuAFdc-23" value="sueldo" style="text;html=1;align=center;verticalAlign=middle;resizable=0;points=[];autosize=1;strokeColor=none;fillColor=none;" vertex="1" parent="1">
          <mxGeometry x="397.25" y="242" width="53" height="26" as="geometry" />
        </mxCell>
        <mxCell id="v2lNbbgw6htRW_UuAFdc-35" value="n" style="edgeStyle=orthogonalEdgeStyle;rounded=0;orthogonalLoop=1;jettySize=auto;html=1;exitX=0.5;exitY=0;exitDx=0;exitDy=0;entryX=0.5;entryY=1;entryDx=0;entryDy=0;endArrow=none;endFill=0;" edge="1" parent="1" source="v2lNbbgw6htRW_UuAFdc-24" target="v2lNbbgw6htRW_UuAFdc-4">
          <mxGeometry relative="1" as="geometry" />
        </mxCell>
        <mxCell id="v2lNbbgw6htRW_UuAFdc-36" value="1" style="edgeStyle=orthogonalEdgeStyle;rounded=0;orthogonalLoop=1;jettySize=auto;html=1;exitX=0.5;exitY=1;exitDx=0;exitDy=0;entryX=0;entryY=1;entryDx=0;entryDy=0;endArrow=none;endFill=0;" edge="1" parent="1" source="v2lNbbgw6htRW_UuAFdc-24" target="v2lNbbgw6htRW_UuAFdc-1">
          <mxGeometry x="0.7778" y="-2" relative="1" as="geometry">
            <Array as="points">
              <mxPoint x="170" y="483" />
            </Array>
            <mxPoint as="offset" />
          </mxGeometry>
        </mxCell>
        <mxCell id="v2lNbbgw6htRW_UuAFdc-24" value="asignado" style="shape=rhombus;perimeter=rhombusPerimeter;whiteSpace=wrap;html=1;align=center;" vertex="1" parent="1">
          <mxGeometry x="133.25" y="400" width="73.5" height="41" as="geometry" />
        </mxCell>
        <mxCell id="v2lNbbgw6htRW_UuAFdc-34" value="n" style="edgeStyle=orthogonalEdgeStyle;rounded=0;orthogonalLoop=1;jettySize=auto;html=1;exitX=0.5;exitY=0;exitDx=0;exitDy=0;entryX=0.5;entryY=1;entryDx=0;entryDy=0;endArrow=none;endFill=0;" edge="1" parent="1" source="v2lNbbgw6htRW_UuAFdc-25" target="v2lNbbgw6htRW_UuAFdc-5">
          <mxGeometry relative="1" as="geometry" />
        </mxCell>
        <mxCell id="v2lNbbgw6htRW_UuAFdc-25" value="supervisa" style="shape=rhombus;perimeter=rhombusPerimeter;whiteSpace=wrap;html=1;align=center;" vertex="1" parent="1">
          <mxGeometry x="265.25" y="400" width="73.5" height="41" as="geometry" />
        </mxCell>
        <mxCell id="v2lNbbgw6htRW_UuAFdc-26" value="nombre" style="text;html=1;align=center;verticalAlign=middle;resizable=0;points=[];autosize=1;strokeColor=none;fillColor=none;" vertex="1" parent="1">
          <mxGeometry x="542" y="374" width="59" height="26" as="geometry" />
        </mxCell>
        <mxCell id="v2lNbbgw6htRW_UuAFdc-27" value="dpto_ID" style="text;html=1;align=center;verticalAlign=middle;resizable=0;points=[];autosize=1;strokeColor=none;fillColor=none;fontStyle=4" vertex="1" parent="1">
          <mxGeometry x="620" y="406" width="60" height="26" as="geometry" />
        </mxCell>
        <mxCell id="v2lNbbgw6htRW_UuAFdc-32" value="1" style="edgeStyle=orthogonalEdgeStyle;rounded=0;orthogonalLoop=1;jettySize=auto;html=1;exitX=0.5;exitY=1;exitDx=0;exitDy=0;entryX=0;entryY=0.5;entryDx=0;entryDy=0;endArrow=none;endFill=0;" edge="1" parent="1" source="v2lNbbgw6htRW_UuAFdc-30" target="v2lNbbgw6htRW_UuAFdc-1">
          <mxGeometry x="0.7097" relative="1" as="geometry">
            <mxPoint as="offset" />
          </mxGeometry>
        </mxCell>
        <mxCell id="v2lNbbgw6htRW_UuAFdc-30" value="coordina" style="shape=rhombus;perimeter=rhombusPerimeter;whiteSpace=wrap;html=1;align=center;" vertex="1" parent="1">
          <mxGeometry x="397.25" y="396" width="73.5" height="41" as="geometry" />
        </mxCell>
        <mxCell id="v2lNbbgw6htRW_UuAFdc-38" value="1" style="edgeStyle=orthogonalEdgeStyle;rounded=0;orthogonalLoop=1;jettySize=auto;html=1;entryX=0.5;entryY=1;entryDx=0;entryDy=0;endArrow=none;endFill=0;" edge="1" parent="1" source="v2lNbbgw6htRW_UuAFdc-37" target="v2lNbbgw6htRW_UuAFdc-1">
          <mxGeometry relative="1" as="geometry" />
        </mxCell>
        <mxCell id="v2lNbbgw6htRW_UuAFdc-39" value="n" style="edgeStyle=orthogonalEdgeStyle;rounded=0;orthogonalLoop=1;jettySize=auto;html=1;exitX=1;exitY=0.5;exitDx=0;exitDy=0;entryX=0;entryY=0.5;entryDx=0;entryDy=0;endArrow=none;endFill=0;" edge="1" parent="1" source="v2lNbbgw6htRW_UuAFdc-37" target="3enhpQpEc42d_-qlgLJK-8">
          <mxGeometry x="0.5388" y="4" relative="1" as="geometry">
            <Array as="points">
              <mxPoint x="608" y="544" />
            </Array>
            <mxPoint y="1" as="offset" />
          </mxGeometry>
        </mxCell>
        <mxCell id="v2lNbbgw6htRW_UuAFdc-37" value="tiene" style="shape=rhombus;perimeter=rhombusPerimeter;whiteSpace=wrap;html=1;align=center;" vertex="1" parent="1">
          <mxGeometry x="490.75" y="524" width="58.5" height="41" as="geometry" />
        </mxCell>
        <mxCell id="v2lNbbgw6htRW_UuAFdc-44" value="n" style="edgeStyle=orthogonalEdgeStyle;rounded=0;orthogonalLoop=1;jettySize=auto;html=1;exitX=0;exitY=0.5;exitDx=0;exitDy=0;entryX=0.5;entryY=0;entryDx=0;entryDy=0;endArrow=none;endFill=0;" edge="1" parent="1" source="v2lNbbgw6htRW_UuAFdc-40" target="v2lNbbgw6htRW_UuAFdc-11">
          <mxGeometry x="0.6413" relative="1" as="geometry">
            <mxPoint as="offset" />
          </mxGeometry>
        </mxCell>
        <mxCell id="v2lNbbgw6htRW_UuAFdc-40" value="controla" style="shape=rhombus;perimeter=rhombusPerimeter;whiteSpace=wrap;html=1;align=center;" vertex="1" parent="1">
          <mxGeometry x="373" y="514" width="73.5" height="41" as="geometry" />
        </mxCell>
        <mxCell id="v2lNbbgw6htRW_UuAFdc-45" value="proy_ID" style="text;html=1;align=center;verticalAlign=middle;resizable=0;points=[];autosize=1;strokeColor=none;fillColor=none;fontStyle=4" vertex="1" parent="1">
          <mxGeometry x="343" y="649" width="60" height="26" as="geometry" />
        </mxCell>
        <mxCell id="v2lNbbgw6htRW_UuAFdc-46" value="nombre" style="text;html=1;align=center;verticalAlign=middle;resizable=0;points=[];autosize=1;strokeColor=none;fillColor=none;" vertex="1" parent="1">
          <mxGeometry x="247" y="659" width="59" height="26" as="geometry" />
        </mxCell>
        <mxCell id="v2lNbbgw6htRW_UuAFdc-50" value="num_seg_social" style="text;html=1;align=center;verticalAlign=middle;resizable=0;points=[];autosize=1;strokeColor=none;fillColor=none;" vertex="1" parent="1">
          <mxGeometry x="600" y="454" width="105" height="26" as="geometry" />
        </mxCell>
        <mxCell id="v2lNbbgw6htRW_UuAFdc-53" value="proy_ID" style="text;html=1;align=center;verticalAlign=middle;resizable=0;points=[];autosize=1;strokeColor=none;fillColor=none;" vertex="1" parent="1">
          <mxGeometry x="35" y="297" width="60" height="26" as="geometry" />
        </mxCell>
        <mxCell id="v2lNbbgw6htRW_UuAFdc-56" value="dpto_ID" style="text;html=1;align=center;verticalAlign=middle;resizable=0;points=[];autosize=1;strokeColor=none;fillColor=none;" vertex="1" parent="1">
          <mxGeometry x="28" y="323" width="60" height="26" as="geometry" />
        </mxCell>
        <mxCell id="v2lNbbgw6htRW_UuAFdc-63" style="edgeStyle=orthogonalEdgeStyle;rounded=0;orthogonalLoop=1;jettySize=auto;html=1;exitX=0.5;exitY=0;exitDx=0;exitDy=0;entryX=0.5;entryY=1;entryDx=0;entryDy=0;" edge="1" parent="1" source="v2lNbbgw6htRW_UuAFdc-58" target="v2lNbbgw6htRW_UuAFdc-59">
          <mxGeometry relative="1" as="geometry" />
        </mxCell>
        <mxCell id="v2lNbbgw6htRW_UuAFdc-58" value="DEPENDIENTES" style="whiteSpace=wrap;html=1;align=center;" vertex="1" parent="1">
          <mxGeometry x="98" y="213" width="100" height="40" as="geometry" />
        </mxCell>
        <mxCell id="v2lNbbgw6htRW_UuAFdc-59" value="PERSONAS" style="whiteSpace=wrap;html=1;align=center;" vertex="1" parent="1">
          <mxGeometry x="173" y="129" width="100" height="40" as="geometry" />
        </mxCell>
        <mxCell id="v2lNbbgw6htRW_UuAFdc-61" value="vinculo" style="text;html=1;align=center;verticalAlign=middle;resizable=0;points=[];autosize=1;strokeColor=none;fillColor=none;" vertex="1" parent="1">
          <mxGeometry x="51" y="171" width="55" height="26" as="geometry" />
        </mxCell>
        <mxCell id="v2lNbbgw6htRW_UuAFdc-66" style="rounded=0;orthogonalLoop=1;jettySize=auto;html=1;endArrow=oval;endFill=1;entryX=0.418;entryY=1.077;entryDx=0;entryDy=0;entryPerimeter=0;exitX=0.25;exitY=0;exitDx=0;exitDy=0;" edge="1" parent="1" source="v2lNbbgw6htRW_UuAFdc-58" target="v2lNbbgw6htRW_UuAFdc-61">
          <mxGeometry relative="1" as="geometry">
            <mxPoint x="79" y="198" as="targetPoint" />
            <mxPoint x="123" y="198" as="sourcePoint" />
          </mxGeometry>
        </mxCell>
        <mxCell id="v2lNbbgw6htRW_UuAFdc-69" value="fecha_inicio_coord" style="text;html=1;align=center;verticalAlign=middle;resizable=0;points=[];autosize=1;strokeColor=none;fillColor=none;" vertex="1" parent="1">
          <mxGeometry x="504" y="316" width="118" height="26" as="geometry" />
        </mxCell>
        <mxCell id="v2lNbbgw6htRW_UuAFdc-70" value="numbre" style="text;html=1;align=center;verticalAlign=middle;resizable=0;points=[];autosize=1;strokeColor=none;fillColor=none;" vertex="1" parent="1">
          <mxGeometry x="706" y="611" width="59" height="26" as="geometry" />
        </mxCell>
        <mxCell id="v2lNbbgw6htRW_UuAFdc-71" value="lugar_id" style="text;html=1;align=center;verticalAlign=middle;resizable=0;points=[];autosize=1;strokeColor=none;fillColor=none;fontStyle=4" vertex="1" parent="1">
          <mxGeometry x="589" y="613" width="61" height="26" as="geometry" />
        </mxCell>
        <mxCell id="v2lNbbgw6htRW_UuAFdc-75" value="lugar_id" style="text;html=1;align=center;verticalAlign=middle;resizable=0;points=[];autosize=1;strokeColor=none;fillColor=none;" vertex="1" parent="1">
          <mxGeometry x="623" y="428" width="61" height="26" as="geometry" />
        </mxCell>
        <mxCell id="v2lNbbgw6htRW_UuAFdc-78" value="proy_ID" style="text;html=1;align=center;verticalAlign=middle;resizable=0;points=[];autosize=1;strokeColor=none;fillColor=none;fontStyle=0" vertex="1" parent="1">
          <mxGeometry x="616" y="385" width="60" height="26" as="geometry" />
        </mxCell>
        <mxCell id="v2lNbbgw6htRW_UuAFdc-93" style="edgeStyle=orthogonalEdgeStyle;rounded=0;orthogonalLoop=1;jettySize=auto;html=1;exitX=1;exitY=0.25;exitDx=0;exitDy=0;entryX=-0.05;entryY=0.462;entryDx=0;entryDy=0;entryPerimeter=0;endArrow=oval;endFill=1;" edge="1" parent="1" source="v2lNbbgw6htRW_UuAFdc-81" target="v2lNbbgw6htRW_UuAFdc-83">
          <mxGeometry relative="1" as="geometry" />
        </mxCell>
        <mxCell id="v2lNbbgw6htRW_UuAFdc-95" style="edgeStyle=orthogonalEdgeStyle;rounded=0;orthogonalLoop=1;jettySize=auto;html=1;exitX=0.75;exitY=1;exitDx=0;exitDy=0;entryX=-0.016;entryY=0.604;entryDx=0;entryDy=0;entryPerimeter=0;endArrow=oval;endFill=1;" edge="1" parent="1" source="v2lNbbgw6htRW_UuAFdc-81" target="v2lNbbgw6htRW_UuAFdc-85">
          <mxGeometry relative="1" as="geometry">
            <Array as="points">
              <mxPoint x="120" y="545" />
            </Array>
          </mxGeometry>
        </mxCell>
        <mxCell id="3enhpQpEc42d_-qlgLJK-2" style="edgeStyle=orthogonalEdgeStyle;rounded=0;orthogonalLoop=1;jettySize=auto;html=1;exitX=1;exitY=0.75;exitDx=0;exitDy=0;entryX=-0.018;entryY=0.385;entryDx=0;entryDy=0;entryPerimeter=0;endArrow=oval;endFill=1;" edge="1" parent="1" source="v2lNbbgw6htRW_UuAFdc-81" target="3enhpQpEc42d_-qlgLJK-1">
          <mxGeometry relative="1" as="geometry" />
        </mxCell>
        <mxCell id="v2lNbbgw6htRW_UuAFdc-81" value="HORAS DE TRABAJO" style="whiteSpace=wrap;html=1;align=center;" vertex="1" parent="1">
          <mxGeometry x="45" y="492" width="100" height="40" as="geometry" />
        </mxCell>
        <mxCell id="v2lNbbgw6htRW_UuAFdc-83" value="proy_ID" style="text;html=1;align=center;verticalAlign=middle;resizable=0;points=[];autosize=1;strokeColor=none;fillColor=none;" vertex="1" parent="1">
          <mxGeometry x="182" y="490" width="60" height="26" as="geometry" />
        </mxCell>
        <mxCell id="v2lNbbgw6htRW_UuAFdc-85" value="num_seg_social" style="text;html=1;align=center;verticalAlign=middle;resizable=0;points=[];autosize=1;strokeColor=none;fillColor=none;fontStyle=0" vertex="1" parent="1">
          <mxGeometry x="156" y="529" width="105" height="26" as="geometry" />
        </mxCell>
        <mxCell id="v2lNbbgw6htRW_UuAFdc-88" value="n" style="edgeStyle=orthogonalEdgeStyle;rounded=0;orthogonalLoop=1;jettySize=auto;html=1;exitX=0.5;exitY=0;exitDx=0;exitDy=0;entryX=0.5;entryY=1;entryDx=0;entryDy=0;endArrow=none;endFill=0;" edge="1" parent="1" source="v2lNbbgw6htRW_UuAFdc-86" target="v2lNbbgw6htRW_UuAFdc-81">
          <mxGeometry relative="1" as="geometry" />
        </mxCell>
        <mxCell id="v2lNbbgw6htRW_UuAFdc-86" value="invertidas&amp;nbsp;&lt;br&gt;en" style="shape=rhombus;perimeter=rhombusPerimeter;whiteSpace=wrap;html=1;align=center;" vertex="1" parent="1">
          <mxGeometry x="49" y="567" width="92" height="56" as="geometry" />
        </mxCell>
        <mxCell id="v2lNbbgw6htRW_UuAFdc-91" value="n" style="edgeStyle=orthogonalEdgeStyle;rounded=0;orthogonalLoop=1;jettySize=auto;html=1;exitX=0.5;exitY=1;exitDx=0;exitDy=0;entryX=0.25;entryY=0;entryDx=0;entryDy=0;endArrow=none;endFill=0;" edge="1" parent="1" source="v2lNbbgw6htRW_UuAFdc-90" target="v2lNbbgw6htRW_UuAFdc-81">
          <mxGeometry x="0.4984" relative="1" as="geometry">
            <mxPoint as="offset" />
          </mxGeometry>
        </mxCell>
        <mxCell id="v2lNbbgw6htRW_UuAFdc-90" value="trabajo" style="shape=rhombus;perimeter=rhombusPerimeter;whiteSpace=wrap;html=1;align=center;" vertex="1" parent="1">
          <mxGeometry x="32.5" y="400" width="73.5" height="41" as="geometry" />
        </mxCell>
        <mxCell id="v2lNbbgw6htRW_UuAFdc-96" style="rounded=0;orthogonalLoop=1;jettySize=auto;html=1;exitX=1;exitY=0.5;exitDx=0;exitDy=0;entryX=-0.033;entryY=0.654;entryDx=0;entryDy=0;entryPerimeter=0;endArrow=oval;endFill=1;" edge="1" parent="1" source="v2lNbbgw6htRW_UuAFdc-11" target="v2lNbbgw6htRW_UuAFdc-97">
          <mxGeometry relative="1" as="geometry">
            <mxPoint x="350" y="614" as="sourcePoint" />
          </mxGeometry>
        </mxCell>
        <mxCell id="v2lNbbgw6htRW_UuAFdc-97" value="lugar_id" style="text;html=1;align=center;verticalAlign=middle;resizable=0;points=[];autosize=1;strokeColor=none;fillColor=none;" vertex="1" parent="1">
          <mxGeometry x="389.25" y="603" width="61" height="26" as="geometry" />
        </mxCell>
        <mxCell id="v2lNbbgw6htRW_UuAFdc-98" value="(t, s)" style="text;html=1;align=center;verticalAlign=middle;resizable=0;points=[];autosize=1;strokeColor=none;fillColor=none;" vertex="1" parent="1">
          <mxGeometry x="304" y="257" width="42" height="26" as="geometry" />
        </mxCell>
        <mxCell id="v2lNbbgw6htRW_UuAFdc-99" value="(t, s)" style="text;html=1;align=center;verticalAlign=middle;resizable=0;points=[];autosize=1;strokeColor=none;fillColor=none;" vertex="1" parent="1">
          <mxGeometry x="229" y="167" width="42" height="26" as="geometry" />
        </mxCell>
        <mxCell id="v2lNbbgw6htRW_UuAFdc-100" value="&lt;font style=&quot;&quot;&gt;&lt;font style=&quot;font-size: 18px;&quot;&gt;MER Empresa&lt;/font&gt;&lt;br&gt;&lt;span style=&quot;font-size: 15px;&quot;&gt;Juan M. PÃ©rez&lt;/span&gt;&lt;/font&gt;" style="text;html=1;align=center;verticalAlign=middle;resizable=0;points=[];autosize=1;strokeColor=none;fillColor=none;" vertex="1" parent="1">
          <mxGeometry x="504" y="80" width="135" height="52" as="geometry" />
        </mxCell>
        <mxCell id="v2lNbbgw6htRW_UuAFdc-101" value="dpto_ID" style="text;html=1;align=center;verticalAlign=middle;resizable=0;points=[];autosize=1;strokeColor=none;fillColor=none;" vertex="1" parent="1">
          <mxGeometry x="501" y="283" width="60" height="26" as="geometry" />
        </mxCell>
        <mxCell id="v2lNbbgw6htRW_UuAFdc-103" value="proy_ID" style="text;html=1;align=center;verticalAlign=middle;resizable=0;points=[];autosize=1;strokeColor=none;fillColor=none;" vertex="1" parent="1">
          <mxGeometry x="211" y="370" width="60" height="26" as="geometry" />
        </mxCell>
        <mxCell id="v2lNbbgw6htRW_UuAFdc-104" style="rounded=0;orthogonalLoop=1;jettySize=auto;html=1;exitX=0.25;exitY=1;exitDx=0;exitDy=0;endArrow=oval;endFill=1;" edge="1" parent="1" source="v2lNbbgw6htRW_UuAFdc-5" target="v2lNbbgw6htRW_UuAFdc-103">
          <mxGeometry relative="1" as="geometry">
            <mxPoint x="130" y="332" as="sourcePoint" />
            <mxPoint x="105" y="319" as="targetPoint" />
          </mxGeometry>
        </mxCell>
        <mxCell id="v2lNbbgw6htRW_UuAFdc-105" value="dpto_ID" style="text;html=1;align=center;verticalAlign=middle;resizable=0;points=[];autosize=1;strokeColor=none;fillColor=none;" vertex="1" parent="1">
          <mxGeometry x="324" y="366" width="60" height="26" as="geometry" />
        </mxCell>
        <mxCell id="v2lNbbgw6htRW_UuAFdc-106" style="rounded=0;orthogonalLoop=1;jettySize=auto;html=1;exitX=0.688;exitY=1.021;exitDx=0;exitDy=0;endArrow=oval;endFill=1;exitPerimeter=0;" edge="1" parent="1" source="v2lNbbgw6htRW_UuAFdc-5" target="v2lNbbgw6htRW_UuAFdc-105">
          <mxGeometry relative="1" as="geometry">
            <mxPoint x="287" y="362" as="sourcePoint" />
            <mxPoint x="266" y="380" as="targetPoint" />
          </mxGeometry>
        </mxCell>
        <mxCell id="3enhpQpEc42d_-qlgLJK-1" value="horas_trabajadas" style="text;html=1;align=center;verticalAlign=middle;resizable=0;points=[];autosize=1;strokeColor=none;fillColor=none;" vertex="1" parent="1">
          <mxGeometry x="173" y="511" width="111" height="26" as="geometry" />
        </mxCell>
        <mxCell id="3enhpQpEc42d_-qlgLJK-4" value="direccion" style="ellipse;shape=doubleEllipse;margin=3;whiteSpace=wrap;html=1;align=center;" vertex="1" parent="1">
          <mxGeometry x="324" y="124" width="66.25" height="30" as="geometry" />
        </mxCell>
        <mxCell id="3enhpQpEc42d_-qlgLJK-6" style="rounded=0;orthogonalLoop=1;jettySize=auto;html=1;exitX=0;exitY=0.5;exitDx=0;exitDy=0;endArrow=oval;endFill=1;entryX=0.531;entryY=1;entryDx=0;entryDy=0;entryPerimeter=0;" edge="1" parent="1" source="v2lNbbgw6htRW_UuAFdc-58" target="3enhpQpEc42d_-qlgLJK-7">
          <mxGeometry relative="1" as="geometry">
            <mxPoint x="-85" y="113" as="targetPoint" />
            <mxPoint x="-35" y="233" as="sourcePoint" />
          </mxGeometry>
        </mxCell>
        <mxCell id="3enhpQpEc42d_-qlgLJK-7" value="num_seg_social" style="text;html=1;align=center;verticalAlign=middle;resizable=0;points=[];autosize=1;strokeColor=none;fillColor=none;fontStyle=0" vertex="1" parent="1">
          <mxGeometry x="8" y="209" width="105" height="26" as="geometry" />
        </mxCell>
        <mxCell id="3enhpQpEc42d_-qlgLJK-8" value="ubicacion" style="shape=ext;margin=3;double=1;whiteSpace=wrap;html=1;align=center;" vertex="1" parent="1">
          <mxGeometry x="633" y="525" width="100" height="40" as="geometry" />
        </mxCell>
      </root>
    </mxGraphModel>
  </diagram>
</mxfile>
